<?xml version="1.0" encoding="UTF-8"?>
<svg id="Layer_1" data-name="Layer 1" xmlns="http://www.w3.org/2000/svg" version="1.1" viewBox="0 0 70 72">
  <defs>
    <style>
      .cls-1 {
        fill: #71adde;
      }

      .cls-1, .cls-2 {
        stroke-width: 0px;
      }

      .cls-2 {
        fill: #111128;
      }
    </style>
  </defs>
  <path class="cls-2" d="M11.5,27.04l1.1-.68s4.93,7.32,10.55-6.77c0,0,1.59-4.95,2.16-11.79h1.39s-.3,13.09,7.7,7.61c0,0,4.4-3.1,5.99-9.14,0,0,.53-1.97.69-3.62h1.18s1.3,8.59,1.47,16.02c0,0,.65,8.9,0,17.76,0,0-.41,6.24-2.32,10.99,0,0,3.14-1.89,8.48,0,0,0,5.95,2.01,9.41-.89,0,0,.77-.64,1.47-2.5l1.18.4s-.49,3.7-5.54,4.91c0,0-3.38.6-8.68-1.21,0,0-5.22-1.37-8.27,2.42l-1.06-.76s2.53-1.77,3.63-11.47c0,0,.81-6.44.57-12.72,0,0,.16-5.72-1.18-18.2,0,0-1.59,6.04-6.72,9.46,0,0-4.65,3.34-7.54-.93,0,0-.49-.48-1.14-2.54,0,0-.81,5.84-2.97,9.7,0,0-1.83,4.47-5.46,6.2,0,0-3.14,1.61-6.07-2.25h-.02Z"/>
  <g>
    <path class="cls-1" d="M24.31,59.01c0,.71-.13,1.3-.4,1.77-.27.48-.64.84-1.14,1.08-.49.24-1.09.36-1.8.36h-1.78v-6.3h1.96c.64,0,1.2.12,1.67.35.47.24.83.58,1.09,1.04s.38,1.02.38,1.7h.02ZM23.46,59.04c0-.84-.21-1.46-.63-1.85-.42-.39-1.01-.59-1.78-.59h-1.04v4.94h.87c.86,0,1.51-.21,1.94-.63.43-.42.65-1.05.65-1.88h0Z"/>
    <path class="cls-1" d="M30.18,62.22h-3.56v-6.3h3.56v.7h-2.76v1.97h2.6v.69h-2.6v2.25h2.76v.7h0Z"/>
    <path class="cls-1" d="M36.09,60.54c0,.38-.09.7-.28.96-.18.26-.45.46-.79.6-.34.14-.75.21-1.21.21-.24,0-.47,0-.68-.04-.22-.02-.42-.06-.59-.1s-.34-.1-.47-.16v-.76c.21.09.48.18.8.26.32.08.65.11.99.11.32,0,.58-.04.79-.12s.38-.2.48-.35.16-.33.16-.54-.04-.38-.13-.52-.24-.27-.46-.39-.52-.25-.91-.38c-.36-.13-.67-.28-.91-.44-.24-.16-.43-.36-.55-.6-.12-.23-.18-.51-.18-.83s.09-.62.26-.86c.17-.24.41-.42.72-.55s.66-.19,1.06-.19c.35,0,.67.03.96.1.29.06.56.15.79.26l-.25.68c-.22-.09-.46-.17-.72-.24-.26-.06-.53-.1-.81-.1s-.49.04-.67.11-.31.18-.4.32c-.09.14-.13.3-.13.48,0,.21.04.39.13.53s.24.27.44.38c.2.11.48.23.82.36.38.14.69.28.95.44.26.16.46.34.59.56s.2.49.2.82h0Z"/>
    <path class="cls-1" d="M40.07,62.22h-2.3v-.46l.75-.17v-5.04l-.75-.18v-.46h2.3v.46l-.75.18v5.04l.75.17v.46Z"/>
    <path class="cls-1" d="M44.96,58.9h2.21v3.09c-.35.11-.69.19-1.04.25-.35.05-.75.08-1.2.08-.66,0-1.22-.13-1.67-.39s-.8-.64-1.03-1.12c-.24-.49-.35-1.06-.35-1.72s.13-1.23.39-1.71.64-.86,1.13-1.13,1.09-.4,1.78-.4c.36,0,.7.03,1.01.1.32.06.61.16.89.27l-.3.69c-.23-.1-.48-.19-.76-.26s-.58-.11-.88-.11c-.51,0-.94.1-1.3.31-.36.21-.64.5-.83.88s-.29.83-.29,1.35.08.94.25,1.33c.16.39.42.69.77.9s.81.32,1.38.32c.28,0,.52,0,.71-.04.2-.03.38-.06.54-.11v-1.87h-1.4v-.71h0Z"/>
    <path class="cls-1" d="M54.64,62.22h-.94l-3.41-5.23h-.04c.01.14.02.3.03.48s.02.38.03.59.01.42.01.64v3.52h-.74v-6.3h.93l3.4,5.22h.04c0-.09-.01-.24-.02-.42s-.02-.39-.03-.62c0-.22-.01-.43-.01-.62v-3.56h.75s0,6.3,0,6.3Z"/>
  </g>
</svg>